<svg id="visual" viewBox="0 0 3960 2560" width="3960" height="2560" xmlns="http://www.w3.org/2000/svg" xmlns:xlink="http://www.w3.org/1999/xlink" version="1.1"><rect x="0" y="0" width="3960" height="2560" fill="#009473"></rect><defs><linearGradient id="grad1_0" x1="35.4%" y1="0%" x2="100%" y2="100%"><stop offset="19.0625%" stop-color="#f7770f" stop-opacity="1"></stop><stop offset="80.9375%" stop-color="#f7770f" stop-opacity="1"></stop></linearGradient></defs><defs><linearGradient id="grad1_1" x1="35.4%" y1="0%" x2="100%" y2="100%"><stop offset="19.0625%" stop-color="#f7770f" stop-opacity="1"></stop><stop offset="80.9375%" stop-color="#d58700" stop-opacity="1"></stop></linearGradient></defs><defs><linearGradient id="grad1_2" x1="35.4%" y1="0%" x2="100%" y2="100%"><stop offset="19.0625%" stop-color="#b39100" stop-opacity="1"></stop><stop offset="80.9375%" stop-color="#d58700" stop-opacity="1"></stop></linearGradient></defs><defs><linearGradient id="grad1_3" x1="35.4%" y1="0%" x2="100%" y2="100%"><stop offset="19.0625%" stop-color="#b39100" stop-opacity="1"></stop><stop offset="80.9375%" stop-color="#919703" stop-opacity="1"></stop></linearGradient></defs><defs><linearGradient id="grad1_4" x1="35.4%" y1="0%" x2="100%" y2="100%"><stop offset="19.0625%" stop-color="#71992b" stop-opacity="1"></stop><stop offset="80.9375%" stop-color="#919703" stop-opacity="1"></stop></linearGradient></defs><defs><linearGradient id="grad1_5" x1="35.4%" y1="0%" x2="100%" y2="100%"><stop offset="19.0625%" stop-color="#71992b" stop-opacity="1"></stop><stop offset="80.9375%" stop-color="#529946" stop-opacity="1"></stop></linearGradient></defs><defs><linearGradient id="grad1_6" x1="35.4%" y1="0%" x2="100%" y2="100%"><stop offset="19.0625%" stop-color="#31985e" stop-opacity="1"></stop><stop offset="80.9375%" stop-color="#529946" stop-opacity="1"></stop></linearGradient></defs><defs><linearGradient id="grad1_7" x1="35.4%" y1="0%" x2="100%" y2="100%"><stop offset="19.0625%" stop-color="#31985e" stop-opacity="1"></stop><stop offset="80.9375%" stop-color="#009473" stop-opacity="1"></stop></linearGradient></defs><defs><linearGradient id="grad2_0" x1="0%" y1="0%" x2="64.6%" y2="100%"><stop offset="19.0625%" stop-color="#f7770f" stop-opacity="1"></stop><stop offset="80.9375%" stop-color="#f7770f" stop-opacity="1"></stop></linearGradient></defs><defs><linearGradient id="grad2_1" x1="0%" y1="0%" x2="64.6%" y2="100%"><stop offset="19.0625%" stop-color="#d58700" stop-opacity="1"></stop><stop offset="80.9375%" stop-color="#f7770f" stop-opacity="1"></stop></linearGradient></defs><defs><linearGradient id="grad2_2" x1="0%" y1="0%" x2="64.6%" y2="100%"><stop offset="19.0625%" stop-color="#d58700" stop-opacity="1"></stop><stop offset="80.9375%" stop-color="#b39100" stop-opacity="1"></stop></linearGradient></defs><defs><linearGradient id="grad2_3" x1="0%" y1="0%" x2="64.6%" y2="100%"><stop offset="19.0625%" stop-color="#919703" stop-opacity="1"></stop><stop offset="80.9375%" stop-color="#b39100" stop-opacity="1"></stop></linearGradient></defs><defs><linearGradient id="grad2_4" x1="0%" y1="0%" x2="64.6%" y2="100%"><stop offset="19.0625%" stop-color="#919703" stop-opacity="1"></stop><stop offset="80.9375%" stop-color="#71992b" stop-opacity="1"></stop></linearGradient></defs><defs><linearGradient id="grad2_5" x1="0%" y1="0%" x2="64.6%" y2="100%"><stop offset="19.0625%" stop-color="#529946" stop-opacity="1"></stop><stop offset="80.9375%" stop-color="#71992b" stop-opacity="1"></stop></linearGradient></defs><defs><linearGradient id="grad2_6" x1="0%" y1="0%" x2="64.6%" y2="100%"><stop offset="19.0625%" stop-color="#529946" stop-opacity="1"></stop><stop offset="80.9375%" stop-color="#31985e" stop-opacity="1"></stop></linearGradient></defs><defs><linearGradient id="grad2_7" x1="0%" y1="0%" x2="64.6%" y2="100%"><stop offset="19.0625%" stop-color="#009473" stop-opacity="1"></stop><stop offset="80.9375%" stop-color="#31985e" stop-opacity="1"></stop></linearGradient></defs><g transform="translate(3960, 0)"><path d="M0 2239.8C-164.7 2104.3 -329.4 1968.7 -512.5 1912.5C-695.6 1856.4 -897 1879.6 -1025 1775.4C-1153 1671.1 -1207.4 1439.3 -1277 1277C-1346.7 1114.8 -1431.5 1022 -1605.6 927C-1779.7 832 -2042.9 734.6 -2163.5 579.7C-2284.1 424.8 -2261.9 212.4 -2239.8 0L0 0Z" fill="#1d9669"></path><path d="M0 1959.8C-144.1 1841.2 -288.2 1722.6 -448.4 1673.5C-608.6 1624.3 -784.9 1644.7 -896.9 1553.4C-1008.8 1462.2 -1056.5 1259.4 -1117.4 1117.4C-1178.3 975.4 -1252.6 894.3 -1404.9 811.1C-1557.2 728 -1787.6 642.8 -1893.1 507.2C-1998.6 371.7 -1979.2 185.9 -1959.8 0L0 0Z" fill="#429952"></path><path d="M0 1679.9C-123.5 1578.2 -247 1476.5 -384.3 1434.4C-521.7 1392.3 -672.8 1409.7 -768.7 1331.5C-864.7 1253.3 -905.5 1079.5 -957.8 957.8C-1010 836.1 -1073.7 766.5 -1204.2 695.3C-1334.8 624 -1532.2 550.9 -1622.6 434.8C-1713.1 318.6 -1696.5 159.3 -1679.9 0L0 0Z" fill="#619a39"></path><path d="M0 1399.9C-102.9 1315.2 -205.9 1230.4 -320.3 1195.3C-434.7 1160.2 -560.7 1174.8 -640.6 1109.6C-720.6 1044.4 -754.6 899.6 -798.1 798.1C-841.7 696.7 -894.7 638.8 -1003.5 579.4C-1112.3 520 -1276.8 459.1 -1352.2 362.3C-1427.5 265.5 -1413.7 132.8 -1399.9 0L0 0Z" fill="#81991a"></path><path d="M0 1119.9C-82.3 1052.1 -164.7 984.3 -256.2 956.3C-347.8 928.2 -448.5 939.8 -512.5 887.7C-576.5 835.5 -603.7 719.6 -638.5 638.5C-673.3 557.4 -715.8 511 -802.8 463.5C-889.8 416 -1021.5 367.3 -1081.8 289.9C-1142 212.4 -1131 106.2 -1119.9 0L0 0Z" fill="#a29400"></path><path d="M0 839.9C-61.8 789.1 -123.5 738.3 -192.2 717.2C-260.8 696.1 -336.4 704.9 -384.4 665.8C-432.4 626.7 -452.8 539.7 -478.9 478.9C-505 418 -536.8 383.3 -602.1 347.6C-667.4 312 -766.1 275.5 -811.3 217.4C-856.5 159.3 -848.2 79.7 -839.9 0L0 0Z" fill="#c48c00"></path><path d="M0 560C-41.2 526.1 -82.3 492.2 -128.1 478.1C-173.9 464.1 -224.3 469.9 -256.2 443.8C-288.2 417.8 -301.8 359.8 -319.3 319.3C-336.7 278.7 -357.9 255.5 -401.4 231.8C-444.9 208 -510.7 183.6 -540.9 144.9C-571 106.2 -565.5 53.1 -560 0L0 0Z" fill="#e68000"></path><path d="M0 280C-20.6 263 -41.2 246.1 -64.1 239.1C-86.9 232 -112.1 235 -128.1 221.9C-144.1 208.9 -150.9 179.9 -159.6 159.6C-168.3 139.3 -178.9 127.8 -200.7 115.9C-222.5 104 -255.4 91.8 -270.4 72.5C-285.5 53.1 -282.7 26.6 -280 0L0 0Z" fill="#f7770f"></path></g><g transform="translate(0, 2560)"><path d="M0 -2239.8C199.6 -2178.6 399.3 -2117.3 532.1 -1985.9C665 -1854.6 731 -1653.1 931 -1612.5C1131 -1572 1464.9 -1692.3 1583.8 -1583.8C1702.7 -1475.3 1606.5 -1137.8 1597 -922C1587.4 -706.2 1664.4 -612 1786 -478.6C1907.6 -345.2 2073.7 -172.6 2239.8 0L0 0Z" fill="#1d9669"></path><path d="M0 -1959.8C174.7 -1906.2 349.4 -1852.6 465.6 -1737.7C581.9 -1622.8 639.6 -1446.5 814.6 -1411C989.6 -1375.5 1281.8 -1480.8 1385.8 -1385.8C1489.8 -1290.9 1405.7 -995.6 1397.3 -806.8C1389 -617.9 1456.4 -535.5 1562.7 -418.7C1669.1 -302 1814.5 -151 1959.8 0L0 0Z" fill="#429952"></path><path d="M0 -1679.9C149.7 -1633.9 299.5 -1588 399.1 -1489.5C498.7 -1390.9 548.3 -1239.8 698.2 -1209.4C848.2 -1179 1098.7 -1269.3 1187.8 -1187.8C1277 -1106.4 1204.9 -853.4 1197.7 -691.5C1190.5 -529.6 1248.3 -459 1339.5 -358.9C1430.7 -258.9 1555.3 -129.4 1679.9 0L0 0Z" fill="#619a39"></path><path d="M0 -1399.9C124.8 -1361.6 249.6 -1323.3 332.6 -1241.2C415.6 -1159.1 456.9 -1033.2 581.9 -1007.8C706.9 -982.5 915.6 -1057.7 989.9 -989.9C1064.2 -922 1004.1 -711.1 998.1 -576.3C992.1 -441.4 1040.3 -382.5 1116.2 -299.1C1192.2 -215.7 1296.1 -107.9 1399.9 0L0 0Z" fill="#81991a"></path><path d="M0 -1119.9C99.8 -1089.3 199.6 -1058.7 266.1 -993C332.5 -927.3 365.5 -826.5 465.5 -806.3C565.5 -786 732.5 -846.2 791.9 -791.9C851.3 -737.6 803.3 -568.9 798.5 -461C793.7 -353.1 832.2 -306 893 -239.3C953.8 -172.6 1036.9 -86.3 1119.9 0L0 0Z" fill="#a29400"></path><path d="M0 -839.9C74.9 -817 149.7 -794 199.5 -744.7C249.4 -695.5 274.1 -619.9 349.1 -604.7C424.1 -589.5 549.3 -634.6 593.9 -593.9C638.5 -553.2 602.4 -426.7 598.9 -345.8C595.3 -264.8 624.2 -229.5 669.7 -179.5C715.3 -129.4 777.6 -64.7 839.9 0L0 0Z" fill="#c48c00"></path><path d="M0 -560C49.9 -544.6 99.8 -529.3 133 -496.5C166.2 -463.6 182.8 -413.3 232.7 -403.1C282.7 -393 366.2 -423.1 395.9 -395.9C425.7 -368.8 401.6 -284.5 399.2 -230.5C396.8 -176.5 416.1 -153 446.5 -119.6C476.9 -86.3 518.4 -43.1 560 0L0 0Z" fill="#e68000"></path><path d="M0 -280C25 -272.3 49.9 -264.7 66.5 -248.2C83.1 -231.8 91.4 -206.6 116.4 -201.6C141.4 -196.5 183.1 -211.5 198 -198C212.8 -184.4 200.8 -142.2 199.6 -115.3C198.4 -88.3 208.1 -76.5 223.2 -59.8C238.4 -43.1 259.2 -21.6 280 0L0 0Z" fill="#f7770f"></path></g></svg>